<svg width="8" height="10" viewBox="0 0 8 10" fill="none" xmlns="http://www.w3.org/2000/svg">
<mask id="path-1-inside-1_1_972" fill="white">
<path fill-rule="evenodd" clip-rule="evenodd" d="M3.1514 5.76372H4.10085H4.10095C4.48474 5.76372 4.86852 5.76372 5.2725 5.72526C6.76738 5.64832 7.95923 4.43655 7.99963 2.9555C8.01983 1.43599 6.84818 0.108811 5.35331 0.0318732C4.40387 -0.00659565 3.47462 -0.00659683 2.48477 0.0126376C2.04035 0.031872 1.59593 0.0318732 1.13131 0.0318732H0.929297V3.91719V4.45577H0V5.74447H0.929297V6.26387H0.0199219V7.55258H0.929297V9.34129H2.38377V7.55258H4.62575V6.26387H2.38377V5.76372H3.1514ZM2.38377 4.45577H2.72713V4.47502H3.01001H3.35341H3.43422C4.28266 4.49426 4.86849 4.47502 5.2119 4.45579C6.01994 4.37885 6.66638 3.68641 6.64618 2.87856C6.64618 2.03225 5.95934 1.33981 5.0907 1.30134C4.6077 1.2726 4.12469 1.27607 3.62484 1.27966C3.45571 1.28088 3.28465 1.28211 3.11101 1.28211H2.38377V3.91719V4.45577Z"/>
</mask>
<path fill-rule="evenodd" clip-rule="evenodd" d="M3.1514 5.76372H4.10085H4.10095C4.48474 5.76372 4.86852 5.76372 5.2725 5.72526C6.76738 5.64832 7.95923 4.43655 7.99963 2.9555C8.01983 1.43599 6.84818 0.108811 5.35331 0.0318732C4.40387 -0.00659565 3.47462 -0.00659683 2.48477 0.0126376C2.04035 0.031872 1.59593 0.0318732 1.13131 0.0318732H0.929297V3.91719V4.45577H0V5.74447H0.929297V6.26387H0.0199219V7.55258H0.929297V9.34129H2.38377V7.55258H4.62575V6.26387H2.38377V5.76372H3.1514ZM2.38377 4.45577H2.72713V4.47502H3.01001H3.35341H3.43422C4.28266 4.49426 4.86849 4.47502 5.2119 4.45579C6.01994 4.37885 6.66638 3.68641 6.64618 2.87856C6.64618 2.03225 5.95934 1.33981 5.0907 1.30134C4.6077 1.2726 4.12469 1.27607 3.62484 1.27966C3.45571 1.28088 3.28465 1.28211 3.11101 1.28211H2.38377V3.91719V4.45577Z" fill="#C4C4C4"/>
<path d="M5.2725 5.72526L5.25964 5.47535L5.24881 5.47638L5.2725 5.72526ZM7.99963 2.9555L8.24957 2.96232L8.24961 2.95883L7.99963 2.9555ZM5.35331 0.0318732L5.36616 -0.217811L5.36343 -0.217922L5.35331 0.0318732ZM2.48477 0.0126376L2.47991 -0.237386L2.47396 -0.237129L2.48477 0.0126376ZM0.929297 0.0318732V-0.218127H0.679297V0.0318732H0.929297ZM0.929297 4.45577V4.70577H1.1793V4.45577H0.929297ZM0 4.45577V4.20577H-0.25V4.45577H0ZM0 5.74447H-0.25V5.99447H0V5.74447ZM0.929297 5.74447H1.1793V5.49447H0.929297V5.74447ZM0.929297 6.26387V6.51387H1.1793V6.26387H0.929297ZM0.0199219 6.26387V6.01387H-0.230078V6.26387H0.0199219ZM0.0199219 7.55258H-0.230078V7.80258H0.0199219V7.55258ZM0.929297 7.55258H1.1793V7.30258H0.929297V7.55258ZM0.929297 9.34129H0.679297V9.59129H0.929297V9.34129ZM2.38377 9.34129V9.59129H2.63377V9.34129H2.38377ZM2.38377 7.55258V7.30258H2.13377V7.55258H2.38377ZM4.62575 7.55258V7.80258H4.87575V7.55258H4.62575ZM4.62575 6.26387H4.87575V6.01387H4.62575V6.26387ZM2.38377 6.26387H2.13377V6.51387H2.38377V6.26387ZM2.38377 5.76372V5.51372H2.13377V5.76372H2.38377ZM2.72713 4.45577H2.97713V4.20577H2.72713V4.45577ZM2.38377 4.45577H2.13377V4.70577H2.38377V4.45577ZM2.72713 4.47502H2.47713V4.72502H2.72713V4.47502ZM3.43422 4.47502L3.43989 4.22502H3.43422V4.47502ZM5.2119 4.45579L5.22589 4.70558L5.2356 4.70466L5.2119 4.45579ZM6.64618 2.87856H6.3961L6.39626 2.88481L6.64618 2.87856ZM5.0907 1.30134L5.07585 1.55093L5.07964 1.5511L5.0907 1.30134ZM3.62484 1.27966L3.62304 1.02967H3.62304L3.62484 1.27966ZM2.38377 1.28211V1.03211H2.13377V1.28211H2.38377ZM4.10085 5.51372H3.1514V6.01372H4.10085V5.51372ZM4.10095 5.51372H4.10085V6.01372H4.10095V5.51372ZM5.24881 5.47638C4.85845 5.51355 4.48623 5.51372 4.10095 5.51372V6.01372C4.48324 6.01372 4.87859 6.01389 5.2962 5.97413L5.24881 5.47638ZM7.74973 2.94869C7.71293 4.29745 6.62614 5.40526 5.25965 5.47559L5.28535 5.97493C6.90861 5.89138 8.20553 4.57565 8.24954 2.96232L7.74973 2.94869ZM5.34046 0.281543C6.69145 0.351075 7.7682 1.55708 7.74966 2.95218L8.24961 2.95883C8.27147 1.31489 7.00492 -0.133453 5.36616 -0.217796L5.34046 0.281543ZM2.48963 0.26259C3.47647 0.243414 4.40039 0.243469 5.34319 0.281668L5.36343 -0.217922C4.40734 -0.25666 3.47277 -0.256608 2.47992 -0.237315L2.48963 0.26259ZM1.13131 0.281873C1.59497 0.281873 2.04484 0.281912 2.49558 0.262404L2.47396 -0.237129C2.03586 -0.218168 1.59689 -0.218127 1.13131 -0.218127V0.281873ZM0.929297 0.281873H1.13131V-0.218127H0.929297V0.281873ZM1.1793 3.91719V0.0318732H0.679297V3.91719H1.1793ZM1.1793 4.45577V3.91719H0.679297V4.45577H1.1793ZM0 4.70577H0.929297V4.20577H0V4.70577ZM0.25 5.74447V4.45577H-0.25V5.74447H0.25ZM0.929297 5.49447H0V5.99447H0.929297V5.49447ZM1.1793 6.26387V5.74447H0.679297V6.26387H1.1793ZM0.0199219 6.51387H0.929297V6.01387H0.0199219V6.51387ZM0.269922 7.55258V6.26387H-0.230078V7.55258H0.269922ZM0.929297 7.30258H0.0199219V7.80258H0.929297V7.30258ZM1.1793 9.34129V7.55258H0.679297V9.34129H1.1793ZM2.38377 9.09129H0.929297V9.59129H2.38377V9.09129ZM2.13377 7.55258V9.34129H2.63377V7.55258H2.13377ZM4.62575 7.30258H2.38377V7.80258H4.62575V7.30258ZM4.37575 6.26387V7.55258H4.87575V6.26387H4.37575ZM2.38377 6.51387H4.62575V6.01387H2.38377V6.51387ZM2.13377 5.76372V6.26387H2.63377V5.76372H2.13377ZM3.1514 5.51372H2.38377V6.01372H3.1514V5.51372ZM2.72713 4.20577H2.38377V4.70577H2.72713V4.20577ZM2.97713 4.47502V4.45577H2.47713V4.47502H2.97713ZM3.01001 4.22502H2.72713V4.72502H3.01001V4.22502ZM3.35341 4.22502H3.01001V4.72502H3.35341V4.22502ZM3.43422 4.22502H3.35341V4.72502H3.43422V4.22502ZM5.19792 4.20618C4.86117 4.22504 4.2819 4.24417 3.43989 4.22509L3.42856 4.72496C4.28342 4.74434 4.8758 4.725 5.22588 4.70539L5.19792 4.20618ZM6.39626 2.88481C6.41299 3.55393 5.87312 4.1417 5.18821 4.20691L5.2356 4.70466C6.16676 4.616 6.91977 3.81889 6.8961 2.87231L6.39626 2.88481ZM5.07964 1.5511C5.82211 1.58398 6.39618 2.17337 6.39618 2.87856H6.89618C6.89618 1.89113 6.09658 1.09565 5.10176 1.05159L5.07964 1.5511ZM3.62663 1.52966C4.12794 1.52606 4.60257 1.52274 5.07585 1.5509L5.10555 1.05179C4.61283 1.02246 4.12144 1.02609 3.62304 1.02967L3.62663 1.52966ZM3.11101 1.53211C3.28569 1.53211 3.45764 1.53087 3.62663 1.52966L3.62304 1.02967C3.45377 1.03089 3.28361 1.03211 3.11101 1.03211V1.53211ZM2.38377 1.53211H3.11101V1.03211H2.38377V1.53211ZM2.63377 3.91719V1.28211H2.13377V3.91719H2.63377ZM2.13377 3.91719V4.45577H2.63377V3.91719H2.13377Z" fill="white" mask="url(#path-1-inside-1_1_972)"/>
</svg>
